<?xml version="1.0" encoding="UTF-8" standalone="no"?><!DOCTYPE svg PUBLIC "-//W3C//DTD SVG 1.1//EN" "http://www.w3.org/Graphics/SVG/1.1/DTD/svg11.dtd"><svg width="100%" height="100%" viewBox="0 0 9603 2675" version="1.1" xmlns="http://www.w3.org/2000/svg" xmlns:xlink="http://www.w3.org/1999/xlink" xml:space="preserve" xmlns:serif="http://www.serif.com/" style="fill-rule:evenodd;clip-rule:evenodd;stroke-linejoin:round;stroke-miterlimit:2;"><path d="M895.443,1631.95l0,733.736c0,82.677 -32.861,153.084 -99.316,210.435c-64.783,58.103 -144.709,87.598 -241.449,89.239l-554.678,-0l83.303,-233.368l385.288,-0c46.298,-0 80.065,-10.664 102.657,-32.777c22.593,-22.113 34.498,-51.575 34.498,-88.453l0,-678.812l289.697,0Z" style="fill:#fff;fill-rule:nonzero;"/><path d="M7746.53,2178.09c-23.221,-24.633 -51.904,-43.696 -83.825,-55.71c8.494,-10.663 15.177,-17.362 20.886,-19.755c55.698,-54.07 83.547,-118.803 83.547,-194.986c-0,-75.192 -27.675,-139.789 -84.347,-193.892c-56.255,-54.685 -128.523,-81.72 -217.848,-81.72l-989.293,-0c-0,0.148 -0,0.296 -0,0.444c-0,125.847 105.474,229.403 233.651,229.403l649.365,0c85.356,0 106.173,59.163 106.173,85.993c0.259,26.883 -10.719,52.729 -30.355,71.466c-20.887,20.165 -46.508,20.302 -77.803,20.302l-881.379,-0l-0,54.685l0.696,-0l-0.418,570.945l1045.48,0c92.841,-0.786 167.441,-28.846 225.471,-85.445c58.482,-58.103 87.027,-125.16 87.027,-202.915c0,-76.799 -28.58,-143.173 -87.027,-198.815Zm-240.196,234.873c-20.539,19.754 -47.343,29.632 -80.066,30.418l-661.408,0l-0,-202.129l663.81,-0c31.33,-0 57.16,9.843 77.664,29.188c20.041,18.169 31.257,43.901 30.807,70.68c0.348,27.078 -10.824,53.108 -30.807,71.774l-0,0.069Z" style="fill:#fff;fill-rule:nonzero;"/><path d="M1808.71,2249.93l500.896,-0c134.834,-0.004 255.402,-84.976 298.539,-210.401l-1088.58,-0.581l0,626.314l1104.52,0l79.056,-230.155l-894.468,-0l0.034,-185.177Z" style="fill:#fff;fill-rule:nonzero;"/><path d="M2650.26,1861.84l79.021,-229.779l-1209.72,-0c0,0.034 0,0.068 0,0.102c0,125.997 105.6,229.677 233.93,229.677l896.766,0Z" style="fill:#fff;fill-rule:nonzero;"/><path d="M4440.11,1631.89l-1042.8,-0c-128.738,-0.001 -234.821,103.69 -235.392,230.087l473.151,0l0,803.459l290.15,0c-0,5.563 -0,136.122 -0,-803.459l279.462,0c128.739,0.001 234.821,-103.69 235.392,-230.087l0.035,-0Z" style="fill:#fff;fill-rule:nonzero;"/><path d="M6116.95,1631.89l-1042.94,-0c-128.744,-0.001 -234.836,103.684 -235.427,230.087l473.186,0l0,803.459l290.115,0l0.174,-803.459l279.463,0c128.744,0.001 234.836,-103.685 235.426,-230.087Z" style="fill:#fff;fill-rule:nonzero;"/><path d="M8975.63,2306.7l0,358.665l-289.488,-0l-0,-358.665l-626.598,-674.745l388.63,0l382.677,434.78l383.722,-434.78l387.759,0l-626.702,674.745Z" style="fill:#fff;fill-rule:nonzero;"/><path d="M994.258,1296.29c19.355,2.208 36.126,4.698 52.991,5.919c73.143,4.698 146.287,8.456 219.43,13.013c12.036,1.822 24.037,-3.862 30.253,-14.328c149.576,-220.793 362.195,-356.745 608.026,-446.283c173.816,-63.466 353.644,-102.363 535.023,-135.67c414.057,-76.009 832.342,-87.66 1251.8,-85.499c85.874,0.47 171.89,-11.368 257.811,-17.663c170.214,-12.527 340.412,-25.055 510.595,-37.582c85.968,-6.295 171.889,-13.811 257.952,-17.475c51.674,-2.161 83.384,-29.737 104.054,-72.251c20.67,-42.515 15.831,-85.687 -12.073,-124.678c-19.073,-26.589 -42.28,-42.279 -78.64,-37.253c-70.83,9.737 -140.482,26.674 -207.874,50.548c-10.946,3.852 -16.536,11.744 -22.032,20.529c-20.106,32.132 -40.448,64.124 -60.037,96.585c-5.518,10.822 -16.349,17.971 -28.468,18.791c-144.831,15.408 -289.568,31.474 -434.304,47.259c-6.964,0.355 -13.941,0.355 -20.905,-0c2.349,-10.711 10.664,-12.449 16.912,-15.785c275.991,-147.461 563.726,-265.186 867.856,-341.054c186.64,-46.554 376.851,-62.339 568.988,-62.057c230.423,0.376 459.906,17.053 689.202,36.502c174.285,14.75 348.257,32.931 521.916,54.54c91.512,11.275 183.117,21.688 274.817,31.24c23.066,2.396 30.535,13.764 31.944,34.904c4.181,62.574 -39.742,113.873 -108.658,121.295c-134.542,14.516 -269.226,27.388 -404.004,40.729c-133.791,13.248 -267.582,26.307 -401.373,39.179c-21.891,2.161 -43.782,3.805 -65.768,10.382c20.013,0 40.072,0.893 60.037,0c320.432,-16.677 641.098,-22.173 961.811,-13.576c186.171,4.979 372.059,16.865 556.82,40.964c202.002,26.307 401.702,62.62 591.349,140.556c103.679,42.655 200.17,96.679 276.461,181.238c72.674,80.565 106.967,175.365 104.289,283.695l0,23.253c0,1.316 1.785,2.584 2.772,3.9c4.228,1.644 6.577,-1.457 8.738,-3.853c65.204,-73.895 126.838,-150.327 161.648,-244.281c39.696,-106.638 13.577,-191.996 -84.559,-264.388c-70.137,-51.674 -150.327,-84.23 -231.785,-111.852c-199.794,-67.553 -401.843,-127.731 -604.925,-184.574c-183.211,-51.267 -367.581,-97.916 -553.11,-139.945c-173.909,-39.179 -348.711,-73.895 -524.406,-104.148c-166.487,-28.562 -333.538,-53.319 -501.34,-71.687c-231.41,-25.321 -463.336,-44.065 -696.39,-45.145c-119.839,-0.564 -239.584,-1.269 -359.235,8.221c-181.296,14.437 -360.699,46.934 -535.539,97.008c-331.377,94.377 -643.588,234.463 -942.926,403.017c-63.795,35.89 -125.805,52.943 -199.419,51.675c-227.614,-4.399 -455.286,4.919 -681.779,27.904c-346.551,34.763 -686.854,98.652 -1013.16,225.021c-268.616,104.101 -512.85,247.617 -720.865,449.008c-9.63,9.113 -21.563,17.757 -29.925,34.152Z" style="fill:#fff;fill-rule:nonzero;"/><path d="M6475.27,1167.95c2.114,-25.791 3.007,-51.206 6.389,-76.244c31.428,-230.846 170.104,-374.784 376.522,-463.665c59.144,-25.509 120.731,-43.689 181.896,-66.614l-3142.16,203.646l-0,9.772l108.94,-0c425.927,2.849 851.853,5.762 1277.78,8.737c306.072,2.036 612.129,3.931 918.169,5.685c82.727,0.563 165.454,1.644 248.181,2.489c32.884,0.329 33.682,1.269 16.207,30.723c-62.668,105.652 -64.923,213.465 -11.322,323.062c3.712,7.987 5.309,18.744 19.402,22.409Z" style="fill:#fff;fill-rule:nonzero;"/><path d="M3507.54,1214.69c205.149,-0 410.298,-1.081 615.401,-0c476.661,2.975 953.339,6.53 1430.03,10.664c87.19,0.657 174.144,-0.611 258.375,-28.891c65.768,-22.22 122.986,-58.111 167.144,-112.323c49.561,-60.741 98.042,-122.14 146.71,-183.821c3.993,-5.027 12.214,-9.96 8.503,-17.288c-3.711,-7.328 -12.449,-3.758 -18.791,-3.523c-55.104,1.926 -110.208,4.697 -165.36,6.201c-11.324,-0.26 -21.797,6.175 -26.683,16.395c-17.71,30.535 -38.709,59.426 -53.882,91.135c-51.206,106.733 -140.274,148.871 -252.832,152.394c-119.791,3.806 -239.583,6.765 -359.328,10.194c-307.607,8.738 -615.213,17.554 -922.82,26.449c-270.526,7.986 -541.052,16.316 -811.578,24.991l-15.408,0c-0.047,2.631 0.235,5.027 0.517,7.423Z" style="fill:#fff;fill-rule:nonzero;"/><path d="M1803.11,1204.5c161.883,-212.337 379.246,-313.62 641.943,-313.385c262.696,0.235 480.2,100.578 641.473,314.043c-64.077,-175.601 -288.581,-393.246 -605.489,-408.702c-330.719,-15.643 -588.953,189.882 -677.927,408.044Z" style="fill:#fff;fill-rule:nonzero;"/><path d="M6717.21,1200.98c161.977,-210.787 379.528,-309.768 640.58,-309.815c260.113,0 476.913,98.652 639.642,307.231c-52.333,-117.114 -133.603,-209.518 -239.584,-281.018c-103.877,-70.562 -224.835,-111.925 -350.168,-119.745c-318.881,-21.797 -589.235,165.83 -690.47,403.347Z" style="fill:#fff;fill-rule:nonzero;"/></svg>