<?xml version="1.0" encoding="UTF-8" standalone="no"?><!DOCTYPE svg PUBLIC "-//W3C//DTD SVG 1.1//EN" "http://www.w3.org/Graphics/SVG/1.1/DTD/svg11.dtd"><svg width="100%" height="100%" viewBox="0 0 3567 4379" version="1.1" xmlns="http://www.w3.org/2000/svg" xmlns:xlink="http://www.w3.org/1999/xlink" xml:space="preserve" xmlns:serif="http://www.serif.com/" style="fill-rule:evenodd;clip-rule:evenodd;stroke-linejoin:round;stroke-miterlimit:2;"><path d="M3566.73,1194.46c0,-32.667 -1.792,-61.375 -28.333,-87.5c-38.889,-38.417 -77.778,-76.917 -116.667,-115.5c-1.416,-2.26 -3.094,-4.344 -5,-6.209l-385.958,-385.958c-6.799,-6.816 -16.04,-10.652 -25.667,-10.652c-9.627,0 -18.868,3.836 -25.667,10.652l-1604.17,1604.17c-14.062,14.088 -14.062,37.244 -0,51.333l385.958,385.958c14.089,14.062 37.245,14.062 51.333,0l1031.04,-1031.04l59.958,-54.167c8,-7.875 17.542,-12.25 30.792,-5.417c19.5,10.084 10.333,37.75 10.375,57.625c0.417,312.25 -0.25,624.5 0.625,936.75c0.48,103.16 -9.107,206.12 -28.625,307.417c-117.583,607.542 -795.208,1033.58 -1395.17,875.417c-522.291,-137.709 -853.583,-531.875 -896.958,-1072.29c-4.167,-53.542 -24.042,-64.125 -71.5,-63.5c-163,2.083 -326.042,3 -489,-0.458c-54.583,-1.125 -65.75,20 -63.917,68.5c5.625,150 27.459,297.208 71.5,440.208c302.584,982.25 1308.62,1503.67 2285.54,1185.75c705.333,-229.792 1209.5,-923.5 1209.5,-1665.29l0,-1425.79Z" style="fill:#fff;fill-rule:nonzero;"/><path d="M1148.59,2052c14.089,14.062 37.245,14.062 51.334,0l1604.17,-1604.17c14.062,-14.089 14.062,-37.245 0,-51.334l-385.958,-385.958c-14.089,-14.061 -37.245,-14.061 -51.333,0l-1604.17,1604.17c-14.062,14.089 -14.062,37.244 -0,51.333l385.958,385.958Z" style="fill:#fff;fill-rule:nonzero;"/></svg>